Simulation
nRows=36
nColumns=15
endheader
time  TH_x TH_y TH_z SC_y  SC_z  SC_x  AC_y  AC_z  AC_x  GH_y  GH_z  GH_yy  EL_x  PS_y
2.8725  0.000000  0.000000  0.000000  -34.201068783017185  0.6283672211193098  -22.68735400239678  38.15358194712192  20.493625855458617  14.431977113313147  39.16259763631393  7.598184704849578  -32.431665825240216  14.06868795245341  120.000000
2.92995  0.000000  0.000000  0.000000  -34.35607032486992  0.6815346741860456  -21.597636066448327  38.71007396710367  20.321317875922762  13.863143759633243  49.72571667356255  6.528626216095352  -40.12500483899147  14.43020338689957  120.000000
2.9874  0.000000  0.000000  0.000000  -34.57999749893619  0.8008797873073743  -20.334649346198066  39.265019970539136  20.049374420636703  13.196576415229153  62.115687578466286  5.916221134798589  -50.10301682313568  14.876171819254717  120.000000
3.0448500000000003  0.000000  0.000000  0.000000  -34.839014528263924  0.9863668490351869  -18.960347570169812  39.77961830059235  19.680701162858195  12.464906774170112  74.6747129059506  5.711660508381412  -60.748399788619274  15.36158481330275  120.000000
3.1023  0.000000  0.000000  0.000000  -35.10043971415992  1.2286597699697086  -17.5395866499782  40.234221444625604  19.230438205481676  11.701606609007223  85.62604940291858  5.799338767676636  -70.26732336112924  15.844007347589816  120.000000
3.15975  0.000000  0.000000  0.000000  -35.341443990347855  1.5077396508431924  -16.13223389173421  40.62310213078462  18.722002648519577  10.941582117462957  94.09616669674969  6.0375839205254165  -77.72907670800987  16.293734416123144  120.000000
3.2172  0.000000  0.000000  0.000000  -35.54735471413512  1.7990561454451546  -14.787660492206085  40.95393765178803  18.18076676808178  10.21312021646418  100.11041957399722  6.30872459350036  -83.07722494312894  16.700432990155715  120.000000
3.2746500000000003  0.000000  0.000000  0.000000  -35.70669289433676  2.0790354004563727  -13.54494910179377  41.24531668592057  17.630973970863696  9.533984735578183  104.07963752612011  6.540388256631274  -86.62975232025242  17.07125741294838  120.000000
3.3321  0.000000  0.000000  0.000000  -35.8113205671884  2.326103646600457  -12.42883900218965  41.51430753911057  17.091563552328548  8.918052402865118  106.46392740677024  6.700813078277329  -88.75525279564512  17.422632025696718  120.000000
3.38955  0.000000  0.000000  0.000000  -35.859028591738856  2.525136335616343  -11.450741864890473  41.77160456660911  16.575419653936706  8.375842823991489  107.66193843059365  6.788049500040821  -89.77409219418159  17.77056774787395  120.000000
3.447  0.000000  0.000000  0.000000  -35.856483630634614  2.6708483375890557  -10.613662391473476  42.022080004893525  16.091763779163646  7.910012942943923  107.99097551573462  6.818994503958139  -89.94772735519707  18.124266567223543  120.000000
3.5044500000000003  0.000000  0.000000  0.000000  -35.81802355578065  2.766373881918076  -9.913978490899467  42.26456044237177  15.64769402922939  7.516884198055375  107.69561421866652  6.818905188646296  -89.48878992520702  18.48578465988721  120.000000
3.5619  0.000000  0.000000  0.000000  -35.761230453479094  2.81922694871519  -9.342512634682146  42.49137525852193  15.247904732632378  7.191494372614284  106.96674592213084  6.812897410250298  -88.57523848643505  18.853040056768386  120.000000
3.61935  0.000000  0.000000  0.000000  -35.69987442903366  2.839617353020464  -8.888447369761234  42.69255082884113  14.89513177936265  6.928252386869583  105.9563989461531  6.82087494266237  -87.35651297298487  19.223207681551354  120.000000
3.6768  0.000000  0.000000  0.000000  -35.639821637559784  2.838149631135836  -8.543069211666246  42.85942294901533  14.591200893242226  6.718710967429256  104.77444629166368  6.855951400031185  -85.94380186377121  19.59455220010672  120.000000
3.7342500000000003  0.000000  0.000000  0.000000  -35.57981313446043  2.8239529096071023  -8.30047345762084  42.98242624629997  14.335393540797915  6.553620134688372  103.48468222335786  6.923940662523712  -84.40165136831428  19.966819885822378  120.000000
3.7917  0.000000  0.000000  0.000000  -35.51409442883552  2.802544457649661  -8.157139209704448  43.049674718739396  14.123260481747849  6.425228562298994  102.09164431485515  7.024992661258714  -82.73297167883796  20.340648100756805  120.000000
3.84915  0.000000  0.000000  0.000000  -35.43316860387382  2.774590349956917  -8.112368605788749  43.05048036327856  13.94802046571229  6.325990644878762  100.5244909019782  7.156711258773391  -80.86214583745371  20.716648981809822  120.000000
3.9066  0.000000  0.000000  0.000000  -35.32529077115  2.736077266028032  -8.168075025488939  42.97734115388208  13.802278113482917  6.2478907264762835  98.63576337965428  7.316061910672377  -78.63413244172693  21.094121193877488  120.000000
3.9640500000000003  0.000000  0.000000  0.000000  -35.17800360104028  2.6800416309022363  -8.327844892745846  42.82612855972557  13.67893296181725  6.183546002643624  96.21713289508982  7.502626269883323  -75.83194620218448  21.470493807324093  120.000000
4.0215  0.000000  0.000000  0.000000  -34.97982676633618  2.599304781661681  -8.596367283036534  42.59658648103324  13.571389345839123  6.127464307963299  93.03756898480633  7.7269296633235065  -72.22026032728677  21.84146257889602  120.000000
4.07895  0.000000  0.000000  0.000000  -34.72176403360712  2.487503791849397  -8.979103585451526  42.2939320038355  13.474433386732958  6.075758897992932  88.91271848951116  8.022033438507515  -67.62267118846769  22.200607485430833  120.000000
4.1364  0.000000  0.000000  0.000000  -34.40077494148394  2.341345763345999  -9.479959659964337  41.92867002000422  13.383466660704554  6.029201347534782  83.82611283010594  8.453826589155652  -62.05088904274253  22.53778831348652  120.000000
4.19385  0.000000  0.000000  0.000000  -34.02229275135827  2.1617446754474057  -10.095956230475709  41.51065181048331  13.293677616129532  5.999700556522363  78.05411602285936  9.114593984533848  -55.831682666787444  22.836976953198615  120.000000
4.2513000000000005  0.000000  0.000000  0.000000  -33.60221218037402  1.9619864944487815  -10.81277039751103  41.04369793906693  13.202115225258277  6.012440714319959  72.14834886465184  10.095437940958032  -49.583225980423904  23.077095751080538  120.000000
4.30875  0.000000  0.000000  0.000000  -33.16518028506709  1.7807227535844887  -11.605807550365858  40.53372165027158  13.113214050987441  6.096528656191525  66.71013257938213  11.457981596054042  -43.97608635766811  23.238366951672983  120.000000
4.3662  0.000000  0.000000  0.000000  -32.74716548120527  1.6838924582970103  -12.443327389610488  40.00390476203057  13.039874918871657  6.275724206665449  62.15225363969497  13.22973527936088  -39.478060571892556  23.317400435432692  120.000000
4.42365  0.000000  0.000000  0.000000  -32.41809920889345  1.745250501015201  -13.280807413179092  39.48333995454114  12.98968438467345  6.5827912413913445  58.62857409334201  15.414934048180507  -36.2692663858915  23.341056482719335  120.000000
4.4811  0.000000  0.000000  0.000000  -32.280190322275296  2.0320411520842323  -14.059510762408326  38.99525484301976  12.95543896317627  7.064118506921505  56.09507175509413  17.999763347430775  -34.29542155042637  23.36512072413285  120.000000
4.53855  0.000000  0.000000  0.000000  -32.43525563982828  2.599154426484574  -14.721194180137914  38.57617664011476  12.933217725862121  7.739949176313094  54.376943113716585  20.95690995789397  -33.34918786714577  23.45165399725679  120.000000
4.596  0.000000  0.000000  0.000000  -32.94752889046721  3.4737035070573206  -15.212853060768454  38.267780983775445  12.930525931813106  8.587327920495952  53.22546679675718  24.234618255594903  -33.143024262011096  23.636367610590057  120.000000
4.65345  0.000000  0.000000  0.000000  -33.82658948608069  4.640405355776253  -15.476571500659803  38.09262151514199  12.947152269423256  9.565805136185281  52.402390102607654  27.750589045290425  -33.39511209792827  23.90938795516242  120.000000
4.7109000000000005  0.000000  0.000000  0.000000  -35.0287778769582  6.044941999857214  -15.450455030390485  38.06602846440771  12.973390958106004  10.621464727146224  51.733262270014244  31.409354249090725  -33.89090400598092  24.218633692660887  120.000000
4.76835  0.000000  0.000000  0.000000  -36.472149851063286  7.617450577116225  -15.074291978391047  38.198080954446844  12.999451629983767  11.687816947099066  51.1052080061313  35.105523750062304  -34.49089259148329  24.489746341354948  120.000000
4.8258  0.000000  0.000000  0.000000  -38.06188363079926  9.281520477295324  -14.290214614178419  38.48270703435154  13.023826108285354  12.695244010525515  50.44496969039163  38.72248965478835  -35.121852538600756  24.650055165366474  120.000000
4.88325  0.000000  0.000000  0.000000  -39.71340947978119  10.952544400868995  -13.047396376578059  38.899645022329395  13.057202569472592  13.578306565150346  49.702813174165684  42.146898074418004  -35.76837793273933  24.646969368774204  120.000000
